<svg xmlns="http://www.w3.org/2000/svg" width="1280" height="720" viewBox="0 0 1280 720">
  <rect width="1280" height="720" fill="#eaf2fb"/>
  <rect x="0" y="0" width="250" height="720" fill="#0d2f53"/>
  <rect x="25" y="165" width="200" height="42" rx="10" fill="#2a5b8d"/>
  <text x="45" y="193" font-family="Segoe UI, Arial" font-size="20" fill="#ffffff">Attendance</text>
  <text x="290" y="65" font-family="Segoe UI, Arial" font-size="36" fill="#10253d">Attendance Overview</text>
  <rect x="290" y="95" width="950" height="245" rx="14" fill="#ffffff" stroke="#d1dbe8"/>
  <text x="320" y="135" font-family="Segoe UI, Arial" font-size="24" fill="#10253d">Take Attendance</text>
  <rect x="320" y="155" width="180" height="42" rx="9" fill="#eef2f7"/>
  <rect x="515" y="155" width="150" height="42" rx="9" fill="#0f5ea9"/>
  <rect x="680" y="155" width="180" height="42" rx="9" fill="#0f5ea9"/>
  <rect x="320" y="210" width="890" height="110" rx="10" fill="#f8fbff" stroke="#d1dbe8"/>
  <text x="320" y="382" font-family="Segoe UI, Arial" font-size="24" fill="#10253d">Date-wise Attendance</text>
  <rect x="290" y="400" width="950" height="255" rx="14" fill="#ffffff" stroke="#d1dbe8"/>
  <rect x="320" y="430" width="180" height="40" rx="8" fill="#eef2f7"/>
  <rect x="515" y="430" width="130" height="40" rx="8" fill="#0f5ea9"/>
  <rect x="660" y="430" width="130" height="40" rx="8" fill="#0f5ea9"/>
  <rect x="805" y="430" width="180" height="40" rx="8" fill="#0f5ea9"/>
  <rect x="320" y="485" width="890" height="145" rx="10" fill="#f8fbff" stroke="#d1dbe8"/>
</svg>
