<svg xmlns="http://www.w3.org/2000/svg" width="1280" height="720" viewBox="0 0 1280 720">
  <rect width="1280" height="720" fill="#edf3fb"/>
  <rect x="0" y="0" width="250" height="720" fill="#0d2f53"/>
  <text x="40" y="60" font-family="Segoe UI, Arial" font-size="30" fill="#ffffff">Student ERP</text>
  <rect x="25" y="110" width="200" height="42" rx="10" fill="#19466f"/>
  <text x="45" y="138" font-family="Segoe UI, Arial" font-size="20" fill="#ffffff">Students</text>
  <rect x="25" y="165" width="200" height="42" rx="10" fill="#19466f"/>
  <text x="45" y="193" font-family="Segoe UI, Arial" font-size="20" fill="#ffffff">Attendance</text>
  <rect x="25" y="220" width="200" height="42" rx="10" fill="#19466f"/>
  <text x="45" y="248" font-family="Segoe UI, Arial" font-size="20" fill="#ffffff">Fees</text>
  <rect x="25" y="275" width="200" height="42" rx="10" fill="#19466f"/>
  <text x="45" y="303" font-family="Segoe UI, Arial" font-size="20" fill="#ffffff">Reports</text>
  <text x="290" y="65" font-family="Segoe UI, Arial" font-size="36" fill="#10253d">Superuser Dashboard</text>
  <rect x="290" y="95" width="300" height="560" rx="14" fill="#ffffff" stroke="#d1dbe8"/>
  <text x="320" y="132" font-family="Segoe UI, Arial" font-size="24" fill="#10253d">Students</text>
  <rect x="310" y="160" width="260" height="58" rx="10" fill="#f7fafc" stroke="#d1dbe8"/>
  <rect x="310" y="228" width="260" height="58" rx="10" fill="#f7fafc" stroke="#d1dbe8"/>
  <rect x="310" y="296" width="260" height="58" rx="10" fill="#f7fafc" stroke="#d1dbe8"/>
  <rect x="620" y="95" width="620" height="560" rx="14" fill="#ffffff" stroke="#d1dbe8"/>
  <text x="650" y="132" font-family="Segoe UI, Arial" font-size="24" fill="#10253d">Student Details</text>
  <rect x="650" y="160" width="170" height="95" rx="12" fill="#eef6ff" stroke="#d1dbe8"/>
  <rect x="835" y="160" width="170" height="95" rx="12" fill="#eef6ff" stroke="#d1dbe8"/>
  <rect x="1020" y="160" width="170" height="95" rx="12" fill="#eef6ff" stroke="#d1dbe8"/>
  <rect x="650" y="275" width="540" height="360" rx="12" fill="#f9fbfe" stroke="#d1dbe8"/>
  <text x="310" y="690" font-family="Segoe UI, Arial" font-size="22" fill="#475569">Placeholder screenshot - replace with real UI capture</text>
</svg>
